<svg xmlns="http://www.w3.org/2000/svg" width="256" height="256" viewBox="0 0 100 100"><rect width="100" height="100" rx="20" fill="#ff0000"></rect><path d="M57.31 49.81L35.06 38.57Q34.98 38.10 34.95 37.72Q34.91 37.33 34.91 36.95L34.91 36.95Q34.91 35.41 35.83 34.25Q36.76 33.10 38.60 33.10L38.60 33.10Q39.45 33.10 40.41 33.45Q41.38 33.79 42.45 34.41L42.45 34.41L64.01 46.19Q65.09 47.65 65.09 49.96L65.09 49.96Q65.09 51.73 64.55 52.70Q64.01 53.66 63.17 54.20L63.17 54.20L38.84 66.90Q36.83 66.29 36.02 65.28Q35.22 64.28 35.22 62.97L35.22 62.97Q35.22 61.36 36.10 60.40Q36.99 59.43 38.68 58.59L38.68 58.59L57.31 49.81Z" fill="#fff"></path></svg>